HIERARCHY
ROOT Hips
{
	OFFSET -0.031289 103.266464 0.443827
	CHANNELS 6 Xposition Yposition Zposition Xrotation Yrotation Zrotation 
	JOINT Spine
	{
		OFFSET -0.002448 12.777534 0.315252
		CHANNELS 3 Xrotation Yrotation Zrotation
		JOINT Spine1
		{
			OFFSET -0.002040 5.816851 0.032640
			CHANNELS 3 Xrotation Yrotation Zrotation
			JOINT Spine1_split
			{
				OFFSET -0.002040 5.816851 0.032640
				CHANNELS 3 Xrotation Yrotation Zrotation
				JOINT Spine2
				{
					OFFSET -0.002040 5.816851 0.032640
					CHANNELS 3 Xrotation Yrotation Zrotation
					JOINT Neck
					{
						OFFSET -0.003672 21.199554 -0.826883
						CHANNELS 3 Xrotation Yrotation Zrotation
						JOINT Head
						{
							OFFSET -0.000000 20.442154 4.834770
							CHANNELS 3 Xrotation Yrotation Zrotation
							JOINT HeadTop_End
							{
								OFFSET 0.000000 34.668427 4.968426
								CHANNELS 3 Xrotation Yrotation Zrotation
								End Site
								{
									OFFSET 0.000000 0.000000 0.000000
								}
							}
						}
					}
					JOINT LeftShoulder
					{
						OFFSET 3.288174 8.794213 -1.372251
						CHANNELS 3 Xrotation Yrotation Zrotation
						JOINT LeftShoulder_split
						{
							OFFSET 3.288174 8.794213 -1.372251
							CHANNELS 3 Xrotation Yrotation Zrotation
							JOINT LeftArm
							{
								OFFSET 11.953302 -2.279037 -0.146175
								CHANNELS 3 Xrotation Yrotation Zrotation
								JOINT LeftForeArm
								{
									OFFSET 18.448874 0.000061 -0.000024
									CHANNELS 3 Xrotation Yrotation Zrotation
									JOINT LeftHand
									{
										OFFSET 29.527794 0.000092 -0.000021
										CHANNELS 3 Xrotation Yrotation Zrotation
										JOINT LeftHandThumb1
										{
											OFFSET 10.739838 -2.369766 9.225297
											CHANNELS 3 Xrotation Yrotation Zrotation
											JOINT LeftHandThumb2
											{
												OFFSET 4.926178 -2.844101 2.844107
												CHANNELS 3 Xrotation Yrotation Zrotation
												JOINT LeftHandThumb3
												{
													OFFSET 4.614899 -2.664444 2.664389
													CHANNELS 3 Xrotation Yrotation Zrotation
													JOINT LeftHandThumb4
													{
														OFFSET 4.432472 -2.559052 2.559026
														CHANNELS 3 Xrotation Yrotation Zrotation
														End Site
														{
															OFFSET 0.000000 0.000000 0.000000
														}
													}
												}
											}
										}
										JOINT LeftHandIndex1
										{
											OFFSET 26.467659 0.187592 6.405249
											CHANNELS 3 Xrotation Yrotation Zrotation
											JOINT LeftHandIndex2
											{
												OFFSET 8.792877 0.000046 -0.000014
												CHANNELS 3 Xrotation Yrotation Zrotation
												JOINT LeftHandIndex3
												{
													OFFSET 10.075157 0.000031 -0.000014
													CHANNELS 3 Xrotation Yrotation Zrotation
													End Site
													{
														OFFSET 0.000000 0.000000 0.000000
													}
												}
											}
										}
										JOINT LeftHandMiddle1
										{
											OFFSET 25.764420 0.000076 -0.000063
											CHANNELS 3 Xrotation Yrotation Zrotation
											JOINT LeftHandMiddle2
											{
												OFFSET 9.368942 -0.468658 -0.500905
												CHANNELS 3 Xrotation Yrotation Zrotation
												JOINT LeftHandMiddle3
												{
													OFFSET 10.758461 -0.538101 0.000023
													CHANNELS 3 Xrotation Yrotation Zrotation
													End Site
													{
														OFFSET 0.000000 0.000000 0.000000
													}
												}
											}
										}
										JOINT LeftHandRing1
										{
											OFFSET 24.660912 0.144745 -6.225863
											CHANNELS 3 Xrotation Yrotation Zrotation
											JOINT LeftHandRing2
											{
												OFFSET 9.393806 0.000046 -0.000017
												CHANNELS 3 Xrotation Yrotation Zrotation
												JOINT LeftHandRing3
												{
													OFFSET 9.928528 -0.000015 -0.000007
													CHANNELS 3 Xrotation Yrotation Zrotation
													End Site
													{
														OFFSET 0.000000 0.000000 0.000000
													}
												}
											}
										}
										JOINT LeftHandPinky1
										{
											OFFSET 23.655312 0.125748 -12.815530
											CHANNELS 3 Xrotation Yrotation Zrotation
											JOINT LeftHandPinky2
											{
												OFFSET 8.425102 0.000031 -0.000015
												CHANNELS 3 Xrotation Yrotation Zrotation
												JOINT LeftHandPinky3
												{
													OFFSET 8.146988 0.000015 -0.000021
													CHANNELS 3 Xrotation Yrotation Zrotation
													End Site
													{
														OFFSET 0.000000 0.000000 0.000000
													}
												}
											}
										}
									}
								}
							}
						}
					}
					JOINT RightShoulder
					{
						OFFSET -3.249397 8.794213 -1.372251
						CHANNELS 3 Xrotation Yrotation Zrotation
						JOINT RightShoulder_split
						{
							OFFSET -3.249397 8.794213 -1.372251
							CHANNELS 3 Xrotation Yrotation Zrotation
							JOINT RightArm
							{
								OFFSET -11.953302 -2.279037 -0.146175
								CHANNELS 3 Xrotation Yrotation Zrotation
								JOINT RightForeArm
								{
									OFFSET -18.448874 0.000061 -0.000024
									CHANNELS 3 Xrotation Yrotation Zrotation
									JOINT RightHand
									{
										OFFSET -29.527794 0.000092 -0.000021
										CHANNELS 3 Xrotation Yrotation Zrotation
										JOINT RightHandThumb1
										{
											OFFSET -10.739838 -2.369766 9.225297
											CHANNELS 3 Xrotation Yrotation Zrotation
											JOINT RightHandThumb2
											{
												OFFSET -4.926178 -2.844101 2.844107
												CHANNELS 3 Xrotation Yrotation Zrotation
												JOINT RightHandThumb3
												{
													OFFSET -4.614899 -2.664444 2.664389
													CHANNELS 3 Xrotation Yrotation Zrotation
													JOINT RightHandThumb4
													{
														OFFSET -4.432472 -2.559052 2.559026
														CHANNELS 3 Xrotation Yrotation Zrotation
														End Site
														{
															OFFSET 0.000000 0.000000 0.000000
														}
													}
												}
											}
										}
										JOINT RightHandIndex1
										{
											OFFSET -26.467659 0.187592 6.405249
											CHANNELS 3 Xrotation Yrotation Zrotation
											JOINT RightHandIndex2
											{
												OFFSET -8.792877 0.000046 -0.000014
												CHANNELS 3 Xrotation Yrotation Zrotation
												JOINT RightHandIndex3
												{
													OFFSET -10.075157 0.000031 -0.000014
													CHANNELS 3 Xrotation Yrotation Zrotation
													End Site
													{
														OFFSET 0.000000 0.000000 0.000000
													}
												}
											}
										}
										JOINT RightHandMiddle1
										{
											OFFSET -25.764420 0.000076 -0.000063
											CHANNELS 3 Xrotation Yrotation Zrotation
											JOINT RightHandMiddle2
											{
												OFFSET -9.368942 -0.468658 -0.500905
												CHANNELS 3 Xrotation Yrotation Zrotation
												JOINT RightHandMiddle3
												{
													OFFSET -10.758461 -0.538101 0.000023
													CHANNELS 3 Xrotation Yrotation Zrotation
													End Site
													{
														OFFSET 0.000000 0.000000 0.000000
													}
												}
											}
										}
										JOINT RightHandRing1
										{
											OFFSET -24.660912 0.144745 -6.225863
											CHANNELS 3 Xrotation Yrotation Zrotation
											JOINT RightHandRing2
											{
												OFFSET -9.393806 0.000046 -0.000017
												CHANNELS 3 Xrotation Yrotation Zrotation
												JOINT RightHandRing3
												{
													OFFSET -9.928528 -0.000015 -0.000007
													CHANNELS 3 Xrotation Yrotation Zrotation
													End Site
													{
														OFFSET 0.000000 0.000000 0.000000
													}
												}
											}
										}
										JOINT RightHandPinky1
										{
											OFFSET -23.655312 0.125748 -12.815530
											CHANNELS 3 Xrotation Yrotation Zrotation
											JOINT RightHandPinky2
											{
												OFFSET -8.425102 0.000031 -0.000015
												CHANNELS 3 Xrotation Yrotation Zrotation
												JOINT RightHandPinky3
												{
													OFFSET -8.146980 0.000015 -0.000021
													CHANNELS 3 Xrotation Yrotation Zrotation
													End Site
													{
														OFFSET 0.000000 0.000000 0.000000
													}
												}
											}
										}
									}
								}
							}
						}
					}
				}
			}
		}
	}
	JOINT LeftUpLeg
	{
		OFFSET 11.394079 -6.187805 -0.413817
		CHANNELS 3 Xrotation Yrotation Zrotation
		JOINT LeftLeg
		{
			OFFSET 0.435522 -32.302582 3.732836
			CHANNELS 3 Xrotation Yrotation Zrotation
			JOINT LeftFoot
			{
				OFFSET -0.422448 -48.265030 -6.423308
				CHANNELS 3 Xrotation Yrotation Zrotation
				JOINT LeftToeBase
				{
					OFFSET 4.230914 -16.068172 23.438400
					CHANNELS 3 Xrotation Yrotation Zrotation
					JOINT LeftToe_End
					{
						OFFSET 4.510741 0.695408 19.974636
						CHANNELS 3 Xrotation Yrotation Zrotation
						End Site
						{
							OFFSET 0.000000 0.000000 0.000000
						}
					}
				}
			}
		}
	}
	JOINT RightUpLeg
	{
		OFFSET -11.333660 -6.187805 -0.413817
		CHANNELS 3 Xrotation Yrotation Zrotation
		JOINT RightLeg
		{
			OFFSET -0.425090 -32.302704 3.733010
			CHANNELS 3 Xrotation Yrotation Zrotation
			JOINT RightFoot
			{
				OFFSET 0.438313 -48.264862 -6.423481
				CHANNELS 3 Xrotation Yrotation Zrotation
				JOINT RightToeBase
				{
					OFFSET -4.230914 -16.068172 23.438402
					CHANNELS 3 Xrotation Yrotation Zrotation
					JOINT RightToe_End
					{
						OFFSET -4.510741 0.695407 19.974638
						CHANNELS 3 Xrotation Yrotation Zrotation
						End Site
						{
							OFFSET 0.000000 0.000000 0.000000
						}
					}
				}
			}
		}
	}
}
MOTION
Frames: 4
Frame Time: 0.016667
-2.698976 98.488358 1.641818 0.295008 -22.203792 -2.950795 -5.403980 25.388730 11.213060 3.997429 3.936052 -7.691240 0.000000 0.000000 0.000000 4.476293 3.961409 -7.425024 3.040560 -3.094702 4.070853 6.875134 -11.753990 7.892889 0.000001 -0.000000 -0.000000 0.325190 0.835602 7.865603 0.000000 0.000000 0.000000 18.923466 3.006791 -26.229639 -0.001146 -105.022225 -0.001392 20.666257 -47.310644 25.753409 -1.539855 1.228216 6.141892 4.701444 17.343204 1.440540 -0.149100 6.260543 2.999065 -0.000001 -0.000001 -0.000000 2.147451 5.000789 -46.459923 2.148149 5.001195 -46.467925 -0.000003 0.000000 -0.000000 -0.018562 2.834930 -43.434594 2.538136 7.884683 -46.628421 0.000002 -0.000000 0.000001 2.147451 5.000789 -46.459923 2.148149 5.001195 -46.467925 -0.000003 0.000000 -0.000000 5.100068 7.798899 -46.278681 2.166671 0.930570 -46.825683 -0.000000 0.000001 -0.000002 0.758279 1.963742 2.804355 0.000000 0.000000 0.000000 -22.944352 12.193095 67.814244 -0.000612 112.125034 0.000859 36.928364 -11.219975 41.873052 -1.831395 0.095294 -6.016858 6.146974 -26.092224 -1.320073 -0.498244 -8.567165 -3.000303 0.000000 -0.000000 -0.000001 0.109644 -1.232800 10.166632 0.109667 -1.232583 10.166836 -0.000004 -0.000003 -0.000002 -0.354727 1.789228 7.307573 0.322601 -4.264830 10.182220 -0.000001 -0.000003 0.000004 0.109644 -1.232800 10.166632 0.109667 -1.232583 10.166836 -0.000004 -0.000003 -0.000002 0.109644 -1.232800 10.166632 0.109667 -1.232583 10.166834 -0.000002 -0.000004 -0.000001 -16.248025 0.167291 -4.409273 35.739743 10.865461 6.841161 -14.467230 6.578458 -2.418280 -11.032227 -0.000002 0.000000 -0.000000 0.000001 0.000000 -11.370086 -16.590116 6.564644 26.792850 10.397630 -1.727573 -13.479269 1.873348 -11.485549 -0.311401 0.000002 -0.000000 -0.000000 -0.000002 -0.000000 
-2.800070 98.382942 1.509847 0.976974 -23.636199 -1.422924 -5.582563 25.931650 10.992028 4.220426 3.950583 -8.490481 0.000000 0.000000 0.000000 4.749213 3.992887 -8.204204 2.987698 -2.928619 4.057881 6.667901 -11.048127 8.304522 0.000001 -0.000000 -0.000000 0.327254 0.857187 7.499438 0.000000 0.000000 0.000000 15.352255 6.330893 -25.966064 -0.001391 -103.369394 -0.001612 20.515419 -47.493263 25.633092 -1.537507 1.415574 6.088350 4.701446 17.343203 1.440541 -0.149101 6.260545 2.999058 0.000001 -0.000000 0.000000 2.166502 5.018755 -46.678264 2.167561 5.019498 -46.690234 -0.000000 0.000000 -0.000001 -0.007785 2.861125 -43.651524 2.558374 7.901753 -46.851843 0.000001 0.000001 -0.000002 2.166502 5.018755 -46.678264 2.167561 5.019498 -46.690234 -0.000000 0.000000 -0.000001 5.129948 7.805625 -46.498866 2.186118 0.948748 -47.046572 0.000001 0.000000 -0.000000 0.652813 1.559986 2.089308 0.000000 0.000000 0.000000 -24.252349 16.887796 68.982561 -0.000727 112.051760 0.000987 37.121989 -9.967935 43.710929 -1.834640 1.556963 -5.791020 5.978814 -24.040009 -1.210606 -0.582894 -7.543895 -2.899309 -0.000001 0.000001 0.000000 0.109645 -1.232797 10.166631 0.109667 -1.232582 10.166836 -0.000001 -0.000002 0.000002 -0.354726 1.789224 7.307574 0.322599 -4.264832 10.182217 -0.000000 -0.000001 0.000000 0.109645 -1.232797 10.166631 0.109667 -1.232582 10.166836 -0.000001 -0.000002 0.000003 0.109645 -1.232797 10.166631 0.109667 -1.232582 10.166834 -0.000000 -0.000002 0.000000 -14.670551 0.710340 -4.424600 33.108802 10.486736 4.587341 -15.927921 7.279129 -0.531366 -8.142661 0.000003 -0.000000 -0.000000 0.000000 -0.000000 -13.920592 -17.034439 6.108373 29.590456 9.691588 -3.388727 -14.310301 3.767679 -13.057046 -2.556152 -0.000004 -0.000002 0.000000 -0.000000 -0.000000 
-2.834076 98.336342 1.348337 1.693047 -24.604957 0.070970 -5.787510 26.027793 10.890408 4.475672 3.888727 -9.274568 0.000000 0.000000 0.000000 5.047280 3.947508 -8.970705 2.899901 -2.740073 4.005313 6.479660 -10.247169 8.642149 0.000000 0.000001 -0.000000 0.367764 0.793789 6.904505 0.000000 0.000000 0.000000 11.148300 9.296235 -25.825876 -0.001535 -101.631664 -0.001766 20.485691 -47.688739 25.556850 -1.535190 1.575327 6.042334 4.701440 17.343204 1.440539 -0.149103 6.260544 2.999062 0.000002 -0.000000 0.000004 2.169691 5.021759 -46.714536 2.170638 5.022395 -46.725444 -0.000000 -0.000000 -0.000000 -0.005986 2.865492 -43.687560 2.561587 7.904448 -46.887234 0.000003 -0.000001 -0.000000 2.169691 5.021759 -46.714536 2.170638 5.022395 -46.725444 -0.000000 -0.000000 -0.000000 5.134912 7.806737 -46.535438 2.189222 0.951626 -47.081590 -0.000001 -0.000001 0.000000 0.538050 0.995597 1.420920 0.000000 0.000000 0.000000 -25.308235 21.678232 69.527945 -0.000706 111.950762 0.000943 36.919853 -8.894745 44.790011 -1.842444 2.863589 -5.588871 5.833466 -22.282546 -1.113007 -0.656692 -6.667565 -2.811769 -0.000000 0.000002 -0.000000 0.109647 -1.232798 10.166630 0.109667 -1.232584 10.166836 -0.000001 0.000002 -0.000002 -0.354727 1.789228 7.307572 0.322601 -4.264831 10.182215 -0.000001 -0.000002 -0.000000 0.109647 -1.232798 10.166630 0.109667 -1.232584 10.166836 -0.000001 0.000002 -0.000002 0.109647 -1.232798 10.166630 0.109667 -1.232584 10.166832 0.000001 0.000003 -0.000002 -13.273905 1.169880 -4.623780 30.427393 10.219956 2.734122 -16.867451 7.482240 1.095560 -5.751725 -0.000005 -0.000003 0.000000 -0.000000 -0.000000 -18.564685 -16.682845 4.643252 34.230039 9.405291 -4.709919 -12.581678 4.633760 -11.229386 -6.546776 -0.000002 -0.000001 0.000000 -0.000000 -0.000000 
-2.801580 98.300041 1.167564 2.316070 -25.087365 1.503033 -5.808883 25.741497 10.842317 4.668288 3.770796 -10.047021 0.000000 0.000000 0.000000 5.276400 3.841544 -9.734969 2.826788 -2.552326 3.939368 6.357961 -9.443908 8.899216 0.000001 0.000000 -0.000000 0.452092 0.628424 6.086831 0.000000 0.000000 0.000000 6.437484 11.824058 -25.813754 -0.001570 -99.886934 -0.001796 20.587503 -47.891900 25.561411 -1.533177 1.692240 6.005371 4.701443 17.343206 1.440542 -0.149104 6.260545 2.999063 0.000001 -0.000001 0.000001 2.152007 5.005108 -46.512239 2.152641 5.005470 -46.519483 -0.000000 0.000002 -0.000001 -0.015981 2.841215 -43.486561 2.542795 7.888638 -46.680200 0.000001 -0.000001 0.000001 2.152007 5.005108 -46.512239 2.152641 5.005470 -46.519483 -0.000000 0.000002 -0.000001 5.107219 7.800539 -46.331444 2.171164 0.934774 -46.876886 0.000004 -0.000000 -0.000001 0.421120 0.305504 0.829055 0.000000 0.000000 0.000000 -25.730911 26.372281 69.238857 -0.000707 111.984168 0.000956 36.523665 -8.209694 44.950431 -1.853963 4.089188 -5.398842 5.706087 -20.756694 -1.025346 -0.721761 -5.906771 -2.734961 -0.000001 0.000002 0.000000 0.109645 -1.232802 10.166632 0.109666 -1.232578 10.166839 -0.000000 0.000001 0.000002 -0.354727 1.789225 7.307575 0.322598 -4.264829 10.182215 0.000001 -0.000002 0.000002 0.109645 -1.232802 10.166632 0.109666 -1.232578 10.166839 -0.000000 0.000001 0.000002 0.109645 -1.232802 10.166632 0.109666 -1.232578 10.166836 0.000000 -0.000000 -0.000002 -12.097271 1.399814 -5.067713 27.963577 10.037614 1.315654 -17.312899 7.420387 2.256387 -3.947318 -0.000007 -0.000002 0.000000 -0.000000 0.000000 -23.914021 -15.526808 2.752445 39.213257 9.207153 -5.564609 -9.099794 5.002381 -7.838448 -12.254636 -0.000005 0.000001 -0.000000 0.000002 -0.000000 
